<svg viewBox="0 0 400 420" xmlns="http://www.w3.org/2000/svg" role="img" aria-label="Zhi Zhi, the Wisdom Lion">
  <defs>
    <radialGradient id="zz-bg" cx="50%" cy="40%" r="68%">
      <stop offset="0%" stop-color="#F3ECFF"/>
      <stop offset="100%" stop-color="#E1CFFB"/>
    </radialGradient>
  </defs>
  <circle cx="200" cy="210" r="206" fill="url(#zz-bg)"/>

  <g fill="#6B36B8">
    <circle cx="112" cy="340" r="34"/>
    <circle cx="152" cy="366" r="36"/>
    <circle cx="200" cy="376" r="38"/>
    <circle cx="248" cy="366" r="36"/>
    <circle cx="288" cy="340" r="34"/>
  </g>
  <g fill="#FFC64A">
    <circle cx="120" cy="336" r="15"/>
    <circle cx="160" cy="358" r="15"/>
    <circle cx="200" cy="366" r="15"/>
    <circle cx="240" cy="358" r="15"/>
    <circle cx="280" cy="336" r="15"/>
  </g>

  <g fill="#552891">
    <circle cx="58" cy="220" r="46"/>
    <circle cx="342" cy="220" r="46"/>
    <circle cx="76" cy="130" r="42"/>
    <circle cx="324" cy="130" r="42"/>
    <circle cx="130" cy="66" r="40"/>
    <circle cx="270" cy="66" r="40"/>
  </g>
  <g fill="#6B36B8">
    <circle cx="80" cy="210" r="56"/>
    <circle cx="320" cy="210" r="56"/>
    <circle cx="108" cy="112" r="50"/>
    <circle cx="292" cy="112" r="50"/>
    <circle cx="200" cy="80" r="54"/>
  </g>

  <circle cx="118" cy="150" r="32" fill="#A16AE8"/>
  <circle cx="282" cy="150" r="32" fill="#A16AE8"/>
  <circle cx="118" cy="150" r="15" fill="#FFC64A"/>
  <circle cx="282" cy="150" r="15" fill="#FFC64A"/>

  <circle cx="200" cy="220" r="126" fill="#A16AE8"/>

  <path d="M96 158 Q200 116 304 158 Q300 182 274 184 Q200 156 126 184 Q100 182 96 158 Z" fill="#FFC64A" stroke="#E8A628" stroke-width="3"/>
  <circle cx="140" cy="158" r="5" fill="#E8A628"/>
  <circle cx="170" cy="146" r="5" fill="#E8A628"/>
  <circle cx="230" cy="146" r="5" fill="#E8A628"/>
  <circle cx="260" cy="158" r="5" fill="#E8A628"/>

  <rect x="192" y="70" width="16" height="34" fill="#E8A628"/>
  <circle cx="200" cy="66" r="24" fill="#E63B2E"/>
  <circle cx="200" cy="66" r="24" fill="none" stroke="#B5241D" stroke-width="4"/>
  <circle cx="192" cy="58" r="5" fill="#FF8F7A"/>

  <circle cx="200" cy="186" r="20" fill="#FFF7E0" stroke="#E8A628" stroke-width="4"/>
  <circle cx="200" cy="186" r="12" fill="#FFFFFF"/>
  <path d="M192 178 L208 194 M208 178 L192 194" stroke="#E8CFA0" stroke-width="2"/>

  <ellipse cx="160" cy="232" rx="36" ry="30" fill="#F6EFFF"/>
  <ellipse cx="240" cy="232" rx="36" ry="30" fill="#F6EFFF"/>

  <!-- brows: soft, slightly worried/shy -->
  <path d="M132 214 q26 4 58 6" stroke="#3B1E6B" stroke-width="10" fill="none" stroke-linecap="round"/>
  <path d="M268 214 q-26 4 -58 6" stroke="#3B1E6B" stroke-width="10" fill="none" stroke-linecap="round"/>

  <!-- eyes: looking slightly down/away, shy -->
  <ellipse cx="160" cy="242" rx="22" ry="24" fill="#FFFFFF"/>
  <ellipse cx="240" cy="242" rx="22" ry="24" fill="#FFFFFF"/>
  <circle cx="155" cy="252" r="11" fill="#3B1E6B"/>
  <circle cx="235" cy="252" r="11" fill="#3B1E6B"/>

  <!-- shy blush -->
  <circle cx="132" cy="272" r="16" fill="#FF9BB0" opacity="0.6"/>
  <circle cx="268" cy="272" r="16" fill="#FF9BB0" opacity="0.6"/>

  <ellipse cx="200" cy="258" rx="15" ry="10" fill="#3B1E6B"/>

  <!-- small, hesitant smile -->
  <path d="M176 280 q24 15 48 0" stroke="#3B1E6B" stroke-width="9" fill="none" stroke-linecap="round"/>

  <!-- little book accent -->
  <g transform="translate(300 318) rotate(-10)">
    <rect x="-21" y="-15" width="42" height="30" rx="3" fill="#F6EFFF" stroke="#3B1E6B" stroke-width="3"/>
    <line x1="0" y1="-15" x2="0" y2="15" stroke="#3B1E6B" stroke-width="2"/>
  </g>
</svg>
